<svg width="94" height="145" viewBox="0 0 94 145" xmlns="http://www.w3.org/2000/svg">
    <path d="M36.1108 27.9946V35.8128H13.2621V54.5586H36.1107V62.3967H5.4638V27.9946H36.1108ZM41.5746 22.5308H4.9671C2.2238 22.5308 0 24.7546 0 27.4979V67.8804H41.5845V49.0948H18.7359V41.2766H41.5845V22.5308H41.5746Z" fill="#00a1cd"/>
    <path d="M61.9397 5.4638V27.9945H88.5733V62.3867H54.1315V5.4638H61.9397ZM61.9398 54.5288H80.7154V35.783H61.9398V54.5288ZM62.4365 0H48.6677V67.8803H94.0372V27.4978C94.0372 24.7545 91.8134 22.5307 89.0701 22.5307H67.3937V5.2254C67.4176 2.4293 65.2203 0.1178 62.4266 0L62.4365 0ZM67.4036 49.065V41.2468H75.2615V49.065H67.4036Z" fill="#00a1cd"/>
    <path d="M88.5038 80.3875V88.3349H13.3318V106.216H88.5436V139.883H5.48381V132.045H80.7452V114.035H5.48381V80.3875H88.5038ZM93.9676 74.9237H0.0100098V119.538H75.2913V126.601H0.0200098V140.4C0.0200098 143.143 2.24381 145.367 4.98711 145.367H89.0403C91.7835 145.367 94.0074 143.143 94.0074 140.4V100.733H18.7956V93.7789H93.9676V74.9039V74.9237Z" fill="#00a1cd"/>
</svg>
