<?xml version="1.0" encoding="UTF-8"?>
<svg  xmlns="http://www.w3.org/2000/svg" viewBox="0 0 527.81 549.61">
  <g fill="purple">

      <path d="M361.95,304.25c5.6-1.66,15.58,1.79,20.73,4.44,3.48,1.79,12.1,7.29,13.13,10.95.97,3.42-4.33,4.96-6.92,4.81-5.99-.34-25.26-9.11-28.05-14.42-1.02-1.95-1.51-5,1.11-5.78Z"/>

        <path d="M456.37,324.43c-1.29-1.37-1.17-5.52-.22-7.11.66-1.1,7.61-5.61,9.22-6.51,5.39-3.03,16.8-7.9,22.84-6.55,5.11,1.15,3.66,6.08.88,9.06-4.89,5.24-26.62,17.61-32.71,11.11Z"/>
        <path d="M418.56,317.03c5.45-.65,22.65-.58,25.24,5.47,4.32,10.09-18.78,8.98-24.01,8.46-14.16-1.4-17.6-11.98-1.22-13.94Z"/>
        <path d="M514.68,267.5c5.09-1.02,6.4,2.69,5.68,7.1s-10.49,19.4-13.96,22.1c-4.83,3.76-10.24,3.81-9.93-3.52.27-6.43,11.53-24.34,18.22-25.68Z"/>
        <path d="M521.03,221.5c7.82-2.14,6.87,16.56,6.59,20.78s-3.36,22.81-10.33,14.51c-4.2-5-3.51-33.31,3.74-35.29Z"/>
        <path d="M519.71,211.38c-3.61.89-5.87-1.71-7.96-4.19-2.92-3.47-15.05-24.24-14.39-27.78.42-2.27,4.57-2.12,6.41-1.7,5.94,1.37,14.62,17.75,16.16,23.43.99,3.66,1.97,6.87-.21,10.24Z"/>
        <path d="M144.97,212.41c3.59-.36,18.74.12,20.3,3.32,4.46,9.16-19.39,6.39-23.86,4.77-1.71-.62-5.23-2.95-4.71-4.99.56-2.21,6.3-2.9,8.27-3.1Z"/>
        <path d="M104.57,208.06c5.32-.38,11.4.05,16.49,1.69,2.98.96,9.76,3.69,8.39,7.61-1.41,4.66-15.03.95-18.45-.38-2.9-1.13-8.86-3.86-7.52-7.86l1.08-1.05Z"/>
        <path d="M45.92,175.55c5.62-1.02,23.64,13.49,17.61,18.34-2.14,1.53-3.91.27-5.85-.65-2.46-1.17-12.61-9.83-13.34-12.1-.69-2.14-.7-4.6,1.59-5.58Z"/>
        <path d="M448.92,102.75c9.59-2.08.21,14.38-2.34,17.49-1.58,1.92-6.31,7.18-8.44,2.89-1.81-3.65,6.31-19.41,10.77-20.37Z"/>
        <path d="M427.04,129.63c5.94-.83,5.89,2.56,2.99,6.57s-16.11,15.82-19.07,7.09c-.09-3.32,12.55-13.17,16.08-13.66Z"/>
        <path d="M71.59,195.94c5.74-1.01,21.22,5.11,23.52,10.11,1.14,2.49-1.66,3.93-3.87,3.87-5.11-.13-21.64-6.75-19.65-13.98Z"/>
        <path d="M448.92,44.08c6.07-.88,10.74,13.97,10.13,18.63-.56,4.28-4.36,3.9-6.73,1.01-1.85-2.26-6.88-15.14-5.93-17.88.41-.94,1.56-1.61,2.52-1.75Z"/>
        <path d="M454.56,73.77c2.93-.9,4.66.17,5.12,3.09.61,3.96-.23,16.37-3.8,18.73-8.04,5.31-6.21-20.33-1.32-21.83Z"/>
        <path d="M431.27,22.14c4.4-.76,16.34,11.42,15.75,15.75-.22,1.58-1.53,2.68-3.15,2.54-2.38-.22-15.03-12.95-15.29-15.25-.27-1.65,1.17-2.77,2.69-3.03Z"/>
        <path d="M33.87,157.31c2.16,2.15,8.71,14.61,4.75,15.93-4.48.8-6.46-3.01-8.4-6.27-1.19-2.01-6.26-11.53-2.72-12.68,2.09-.4,4.93,1.59,6.37,3.02Z"/>
        <path d="M22.99,149.8c-2.27-2.2-4.62-16.78-3.62-19.85,3.76-3.97,6.19,2.04,7.18,5.34.9,2.99,2.87,14.42-.71,15.31-.94.13-2.18-.15-2.85-.8Z"/>
        <path d="M402.61,18.33c-.86-.78-.71-2.71.33-3.42,3.79-2.62,12.48-.92,16.28,1.32,2.7,1.59,7.35,6.04,1.3,5.83-1.67-.06-17.23-3.11-17.91-3.73Z"/>

          <path d="M73.01,260.28c-5.79,6.47.58,16.6,8.19,17.6,18.47,2.43,20.58-24.07,6.11-30.85-28.42-13.31-53.9,29.1-26.66,51.4,19.74,16.16,50.63,7.27,68.91-7.05l-18.4,35.68c-24.07,7.13-52.81,1.27-69.24-18.38-12.34-14.77-15.9-36.58-6.5-53.83,11.2-20.55,32.34-31.37,55.26-22.86-11.32-11.33-34.25-6.44-45.58,2.86-17.91,14.69-24.91,36.68-18.07,59.04,10.45,34.16,50.38,48.13,82.73,37.8l-6.81,16.21c-4.65-.87-8.55-2.93-13.42-3.39-10.14-.95-17.58,1.22-25.37,7.66-3.2-5.84-4.6-10.34-10.46-14.25-7.76-5.18-17.3-8.7-26.65-6.22-.37-3.06.83-5.76.71-8.81-.21-5.35-8.08-21.75-12.03-25.48-1.92-1.81-4.7-1.97-6.18-4.23,7.47-10.85,8.46-22.86,4.17-35.22,4.35-4.48,8.26-6.75,12.08-12,4.1-5.62,7.1-11.3,8.04-18.27,3.63-.92,7.19-.6,10.86-1.71s7.44-3.76,11.15-5.12c2.72-.99,6.64-1.24,8.52-2.1,2.27-1.04,1.56-3.34,6.83-3.76,11.21-.91,32.5,15.43,37.73,25.27,8.7,16.35,3.4,40.6-15.56,46.38-9.82,3-22.15-2.67-24.97-12.92-1.3-4.73-.94-11.79,4.61-13.44Z"/>
          <path d="M31.86,336.07c5.94-.46,14.72,4.28,19.46,7.75,3.1,2.26,8.2,5.45,6.49,9.78-3.14,6.45-19.52-2.67-23.5-5.5-4.06-2.89-12.78-11.23-2.46-12.03Z"/>
          <path d="M5.29,298.61c5.32-3.02,11.13,9.92,12.7,13.5,1.73,3.95,7.75,17.56,1.31,19.27-4.85,1.29-9.14-9.11-10.75-12.66s-7.83-17.51-3.26-20.11Z"/>
          <path d="M77.79,350.95c3.71-.51,22.59-1.24,22.63,4.26.05,6.65-7.65,7.27-12.89,7.6-4.17.27-20.96.2-18.65-7.31,1.86-2.69,5.81-4.13,8.91-4.55Z"/>
          <path d="M1.08,289.08c-2.35-2.46-.29-19.27.87-23.16,2.61-8.75,8.61-7.27,8.89,1.77.12,3.89-2.36,19.43-5.03,21.91-1.3,1.21-3.64.62-4.73-.52Z"/>
          <path d="M26.95,227.86c3.76,2.38-6.54,15.96-8.49,18.51s-7.58,9.23-10.15,3.27c-1.45-3.36,9.48-19.39,12.84-21.09,1.85-.94,3.77-1.07,5.81-.69Z"/>
          <path d="M58.81,217.1c-3.29.08-20.23,8.58-20.98,3.24-.37-2.65,13.18-7.12,15.82-7.36,3.46-.32,5.65.18,5.16,4.12Z"/>

        <path d="M27.69,105.51c2.02,1.43-2.42,17.77-6.64,18.32-2.87-.6.27-11.74,1.04-13.79,1.17-3.11,1.52-5.04,5.6-4.53Z"/>
        <path d="M302.07,137.97c1.17-.27,1.43.38,2.11,1.07,3.35,3.44,6.44,9.79,10.25,13.78,16.2,16.94,42.55,28.75,65.77,31.09,27.76,2.79,58.51-8.3,83.57,8.33,30.63,20.32,29.98,68.28-7.22,80.76-27.8,9.34-62.73-2.64-85.71-18.94-36.24-25.71-64.85-71.46-68.77-116.1ZM336.01,193.82c-.15,2.45.88,4.75,1.97,6.86,16.1,31.47,78.68,80.6,113.2,52.82,19.51-15.7,4.82-40.57-16.56-42.71-23.59-2.36-49.14,8.24-73.48,4.2-6.47-1.08-17.94-18.25-25.13-21.17Z"/>
        <path d="M263.88,103.34l-3.56-.32c-3.36-2.22,3.93-9.08,6.15-10.19,13.18-6.62,28.19,9.56,21.14,22.56-2.06,3.81-7.14,7.69-11.52,5.79-.58-.25-9.06-7.43-9.56-8.12-1.88-2.59-2.56-6.56-2.65-9.72Z"/>

        <path d="M254.7,304.82c0-5.01.67-8.83-1.81-13.39-1.46-2.67-4.47-4.34-4.6-7.49-.16-4,5.25-9.52,6.4-13.43.55-1.87-1.75-.85-2.62-.5-8.15,3.26-32.8,27.66-39.8,35.13-30.93,33.02-66.34,81.79-52.65,129.75,16.65,58.32,105.01,40.27,94.89-21.37-3.37-20.55-25.17-39.89-45.7-27-17.54,11.01-10.12,40.32,10.03,36.89,16.02-2.73,13.93-30.17-6.01-23.68l-5.49,3.35c2.6-16.33,24.47-14.38,30.04-.7,8.75,21.51-23.85,38.6-39.56,25.42-10.46-8.77-16.02-25.45-9.57-38.16l-2.15,3.14-2.08,8.87c-.31-6.49.45-13.99,2.91-20.06s9.83-10.91,14.06-15.84l5.66-8.99c8.4-.3,15.78-.43,24.05-2.11,2.91-.59,4.37-2.5,8.1-1.77,8.11,5.06,16.77,11.79,25.63,15.38,2.96,1.2,6.85,1.45,9.64,3.09,5.64,3.31,3.37,6.73,4.31,11.95.69,3.83,6.68,15.22,9.21,18.36,2.14,2.66,8.78,5.99,9.27,7.73.6,2.14-2.26,5.33-3.05,7.65-2.5,7.3-2.51,20.72.86,27.74,1.25,2.62,6.17,6.69,5.25,9.44-.42,1.27-5.86,2.28-7.75,3.6-5.44,3.79-11.89,17.61-12.62,24.14-.63,5.64,1.74,9.89.57,15.06-15.29-3.21-33.13,12.17-35.29,26.93-2.62,0-4.53-1.85-7.03-2.51-8.38-2.19-22.9-.26-30.22,4.49-3.18,2.06-5.01,5.5-8.34,7.23-1.79,0-3.54-3.67-4.93-4.99-7.67-7.28-22.13-10.27-32.21-8.13-1.62.34-5.16,2.43-6.38,1.5-1.2-3.29-1.27-6.61-2.91-9.83-2.14-4.2-16.45-17-20.8-18.79-4.09-1.69-7.96-.98-11.99-2.14-.58-4.83,1-9.51.34-14.48-.83-6.23-8.72-23.34-13.07-27.94-1.46-1.54-6.11-4.13-6.53-5.49-1.11-3.56,2.87-9.57,3.78-13.63,2.27-10.03,1.88-21.91,1.77-32.22-.15-14.63,2.77-25.79,6.68-39.92,14.02-50.7,41.06-89.65,73.91-129.7,1.72-2.09,20.25-21.31,18.36-22.99-13.44,1.77-22.07,16.74-36.76,15.54.74-1.91-.22-7.33-1.43-8.81-4.02-4.87-28.6-5.65-32.85,1.7-9.41-10.07-21.64-11.57-34.52-7.8-5.93-10.19-18.03-14.43-29.35-12.77-2.51-8.46-7.96-14.55-15.89-18.39-4.38-2.12-5.66-1.75-10.43-1.59-1.07-.76-.57-5.54-.97-7.51-1.25-6.15-7.1-12.32-13.12-14.11,4.63-9.01.06-16.88-3.54-25.05,2.07-3.29,3.16-6.45,3.93-10.26,1.24-6.15.13-11.14,5.26-15.95l-3.18,1.09-2.12-1.41c.99-4.97,6.7-16.22,12.37-10.63.74-8.61,16.77-10.61,23.68-10.66,18.93-.14,34.7,14.06,32.88,33.63-1.21,12.94-12.16,23.63-25.23,16.77-4.6-2.42-9.29-9.64-5.17-14.28-1.21,15.38,19.94,16.66,21.84.98,3.05-25.12-27.71-26.48-35.61-5.92-8.85,23.03,14.96,43.43,33.8,51.72,33.47,14.73,72.58,14.32,106.7,1.82,12.49-4.58,29.92-12.12,33.76-25.98-3.21,1.35-5.77,3.93-8.92,5.57-33.01,17.1-81.07,1.15-98.66-31.25-24.73-45.54,5.02-98.14,53.27-108.87,39.6-8.8,85.2,12.44,110.13,43.03,2.69,3.3,12.1,18.34,13.78,19.45,2.36,1.55,8.42,2.39,11.62,3.94,10.33,4.99,15.14,17.07,15.07,28.05.48,1.68,6.77,5.95,8.58,6.98,24.95,14.14,66.63,11.97,80.49-16.6,8.53-17.58,0-43.47-21.66-42.93-16.49.42-26.55,23.53-12.19,31.27,10.48,5.65,22.15-6.93,14.64-16.05,2.53-.87,4.79,4.89,4.9,7.17.52,10.34-9.16,19.1-19.28,18.58-11.71-.6-23.1-13.92-24.43-25.12-1.53-12.94,5.93-33.83,21.13-34.22-7.51-8.18,21.04-14.61,19.76-8.88-.11.47-2.23,2.39-2.84,2.84-1.34.98-3.53,1.18-4.19,2.51,3.99.18,7.6-1.12,11.67-.7,6,.61,11.48,2.24,18.36,2.84s5.5,3.92,9.2,8.48c1.63,2.01,4.73,4.94,6.72,6.72,1.48,1.32,5.33,3.12,6.01,4.6.93,2.04.05,5.04.44,7.34.78,4.66,2.03,9,4.89,12.78.97,1.28,3.79,3.22,4.12,4.42.82,2.97-2.62,4.8-3.8,7.26-1.77,3.71-2.25,10.4-1.69,14.44.37,2.68,3.31,6.48,2.69,8.43-3.76,2.48-6.5,3.06-9.43,6.88-4.85,6.35-6.16,12.5-5.35,20.46-8.52-.78-13.59.37-20.13,5.67-5.28,4.28-9.51,8.92-8.15,16.24l-38.18,1.76c2.29,2.52,6.59,3.49,9.87,4.27,18.06,4.27,33.51.62,51.3,1.72,12.72.79,31.4,5.2,42.77,10.96,3.08,1.56,18.46,11.89,19.8,14.13,1.05,1.76,1.6,6.1,2.66,8.65,2.08,4.96,9.5,18.86,13.21,22.14,3.1,2.74,9.51,3.17,7.05,8.47-.42.9-2.36,2.39-3.19,3.88-3.28,5.88-3.99,20.03-2.49,26.57,1.06,4.59,3.97,7.68,5.34,11.97-9.25,1.62-14.63,7.57-18.75,15.55-.83,1.61-3.87,8.29-3.87,9.56v10.6c-1.47,1.67-4.5-.22-6.73-.34-12.82-.69-31.29,7.88-34.99,21.19-3.7-1.42-5.86-4.63-9.53-6.37-8.62-4.08-24.55-3.77-32.82,1.13-1.74,1.03-4.48,4.12-6.01,3.88-4.9-11.85-20.93-20.23-33.31-20.56-2.93-.08-9.8,2.4-10.93,1.82-1.73-.9-2.06-6.2-3.02-8.34-2.1-4.72-12.79-13.27-17.48-15.75-6.96-3.68-14.55-5.68-21.85-1.81l-19.16-28.22c3.08,25.06,19.83,50.03,38.5,66.47,22.66,19.95,51.98,22.77,75.65,40.3,31.08,23.02,55.28,39.71,57.63,81.64.84,14.92-4.35,42.34-10.06,56.38-13.1,32.24-50.14,53.7-84.81,46.97-43.48-8.44-69.19-62.53-28.78-91.99,21.72-15.84,57.33-10.28,59.35,20.41.91,13.74-9.59,33.34-25.66,30.61-4.56-.78-11.39-6.13-10.78-11.14,18.34,18.18,38.14-8.87,29.02-27.61-9.66-19.85-36.96-16.74-50.23-2.1-34.29,37.81,19.07,85.06,65.62,59.26,21.96-12.18,32.7-31.14,31.59-56.77-.7-16.18-15.18-48.07-31.29-54.25-1.77-.68-3.77-.22-5.16-1.2-1.67-1.17-3.33-6.18-5.22-8.21-7.43-8.04-25.94-14.5-36.33-9.56-1.07-.32-3.39-5.65-4.4-6.97-4.94-6.48-19.45-12.31-27.5-12.8-4.79-.29-8.29,1.1-12.19,1.21-3.61.1-2.46-3.17-3.39-5.42-4.77-11.54-23.33-25.13-36.33-23.41-.98-3.92-1.14-8.26-2.39-12.1-1.17-3.59-9.87-19.64-13.59-19.64h-10.25ZM364.28,61.62c2.34-39.66,55.86-41.61,65.95-4.8,15.54,56.7-68.87,86.22-109.01,51.75-6.67-5.73-6.2-13.58-9.61-20.79-3.91-8.29-10.6-7.92-17.47-11.52s-14.03-17.63-19.66-24.17c-34.58-40.12-107.99-60-140.26-6.68-27.37,45.24,11.7,94.92,61.44,91.13,13.8-1.05,23.99-8.76,37.06-11.25l.77,5.59c1.78-4.23,4.34-7.8,2.03-12.62-9.77-1.05-18.41,4.84-27.47,7.32-26.45,7.24-54.85-.67-69.14-24.88-11.55-19.55-8.82-39.28,8.69-53.96,29.96-25.13,85.56,3.97,98.06,36.3,4.27,11.03-.87,15.93.75,25.41.82,4.79,5.61,10.29,7.12,14.79,9.18,27.28-19.92,68.73-36,89.58-39.48,51.17-78.09,91.11-93.83,157.15-15.51,65.09,10.64,144.86,89.69,139.18,62.97-4.53,93.46-88.3,49.57-132.69-22.29-22.54-64.78-20.99-73.98,13.18l8.11-11.32c36.64-32.21,76.96,4.3,79.54,45.62,5.6,89.92-120.59,103.83-141.34,19.03-21.58-88.24,62.26-161.48,109.12-223.77,17.18-22.84,31.72-49.18,32.94-78.41,2.12,1.52,3,5.42,3.73,7.93,5.27,18.06,7.44,33.25,15.45,51,24.46,54.19,86.82,106.14,149.8,92.74,65.97-14.04,64.25-107.13.11-121.05-23.29-5.05-46.56-1-70.13-6.22-20.58-4.56-36.64-13.48-50.55-29.34-4.49-5.12-11.21-12.97-11.31-19.8,27.74,18.82,61.02,26.77,91.5,8.78,26.62-15.72,40.4-48.05,25.63-77.13-15.11-29.76-66.13-28.55-68.69,9.33-.05.77-.34,6.72,1.4,4.59ZM231.36,73.63c.72-.73-5.18-6.97-6.02-7.76-17.01-15.86-51.04-28.01-71.37-12.02-3.33,2.62-8,7.8-7.8,12,24.36-26.66,61.63-11.79,85.19,7.78ZM70.18,83.54c-33.9.81-40.41,40.13-25.74,64.98,32.81,55.61,153.9,66.62,192.46,13.71,5.48-7.51,9.75-15.82,10.03-25.32l-1.41-.35c-10.4,17.93-27.74,30.95-47.01,38.18-36.42,13.67-87.63,11.76-121.73-7.67-27.71-15.78-51.6-47.89-23.09-75.65l16.49-7.89ZM462.54,436.31c-1.72-36.84-31-63.61-61.95-79.08-20.32-10.15-42.61-14.98-62.68-26.39-44.71-25.42-61.51-64.75-63.41-114.76-.03-.85.53-2.63-.7-2.46-2.55,9.38-4.76,19.63-5.66,29.34-3.89,42.03,22.47,78.63,57.95,98.28,36.51,20.21,79.17,23.26,109.97,53.34,6.15,6.01,11.96,13.77,16.26,21.21l10.23,20.51Z"/>
        <path d="M96.09,447.06c.96-.09,1.59.48,2.32.95,5.45,3.52,16.78,29.48,16.35,36.01-.24,3.68-2.64,5.64-6.23,4.07-6.39-2.79-17.39-29.79-16.47-36.62.25-1.88,2.08-4.23,4.03-4.41Z"/>
        <path d="M118.72,497.94c7.86-2.7,27.09,13.13,29.86,20.1,2.58,6.49-2.05,8.84-7.86,7.15-6.27-1.83-24.26-17.43-23.86-24.14.06-1.07.77-2.74,1.86-3.11Z"/>
        <path d="M241.85,529.75c1.28,2.09-.74,5.45-2.36,6.95-5.74,5.29-24.88,9.54-31.7,5.56-10.08-5.89,6.2-11.52,11.11-12.71,4.01-.97,20.71-3.43,22.94.21Z"/>
        <path d="M163.33,526.29c6.38-.9,17.44,2.45,23.28,5.34,4.39,2.17,11.65,7.01,4.25,10.87-6.89,3.6-23.96-1.75-29.83-6.5-5.62-4.55-5.38-8.63,2.3-9.71Z"/>
        <path d="M92.59,390.45c3.06-.78,4.97,3.95,5.56,6.23,1.8,6.96,1.18,26.73-1.28,33.44-3.17,8.63-7.59,2.44-8.83-3.54-1.17-5.64-1.95-34.47,4.55-36.14Z"/>
        <path d="M345.44,535.75c-1.91-1.61-4.19-4.44-6.24-6.13-1.64-5.87.35-5.93,4.83-3.42,11.54,6.46,18.67,12.22,32.68,13.98,3.5.44,17.14-1.5,16.59,4.62-.16,1.74-3.39,3.89-4.96,4.3-10.02,2.63-20.09-5.64-29.15-7.67-7.36-1.65-7.06-.03-13.75-5.68Z"/>
        <path d="M275.75,502.23c2.68-.33,4.96-.15,6.41,2.45.7,2.37-.98,4.81-2.35,6.58-3.45,4.48-15.87,16.04-21.27,16.9-6.95,1.11-9.82-3.51-5.63-9.16,3.87-5.21,16.35-15.99,22.83-16.78Z"/>
        <path d="M300.45,460.5c3.6-.82,6.49.46,6.47,4.45s-9.5,23.12-12.33,26.45c-4.66,5.47-10.03,5.3-9.51-3.15.41-6.66,8.37-26.15,15.37-27.75Z"/>
        <path d="M327.87,370.25c5.88-.25,14.22,2.17,19.47,4.88,3.47,1.79,17.9,11.42,7.95,13.66-5.15,1.16-20.64-5.27-25.42-8.21s-12.88-9.87-2-10.33Z"/>
        <path d="M282.73,343.1c2.15-.7,5.39.06,7.51.76,5.07,1.68,21.29,14.38,22.33,19.45,1.31,6.42-7.71,4.14-11.13,2.58-4.04-1.84-16.16-12.57-18.36-16.29-.88-1.49-2.67-5.74-.35-6.5Z"/>
        <path d="M303.93,413.13c8.77-1.69,7.31,20.03,6.54,24.86-.82,5.13-4.7,16.18-9.65,6.99-2.82-5.24-3.74-30.53,3.11-31.85Z"/>
        <path d="M320.54,277.33c2.15-1.03,4.04-.93,6.31-.48,5.69,1.13,21.5,14.28,23.47,19.69,1.38,3.81-2.11,5.17-5.43,4.71-4.95-.69-15.29-9.24-18.77-13.06-1.69-1.86-7.14-8.38-5.58-10.85Z"/>
        <path d="M368.73,394.4c-1.01-1.22-1.54-4.82-.22-5.83,5.1-3.86,28.25,5.56,30.76,10.99,1.23,2.66,0,4.71-2.8,4.99-4.59.46-24.88-6.69-27.74-10.15Z"/>
        <path d="M287.03,374.96c1.08-.24,2.14-.34,3.22-.02,3.18.96,9.76,13.9,11.02,17.28,1.01,2.7,3.12,10.43.1,11.93-.97.49-2,.53-3.03.22-3.89-1.16-13.62-19.94-13.95-24.27-.2-2.65-.31-4.5,2.65-5.15Z"/>
        <path d="M451.66,368.53c6.08-1.46,19.54,19.59,19.44,25.73-.06,3.73-3.43,6.25-6.46,3.54-1.82-1.62-10.18-14.9-11.86-17.83-.84-1.47-3.44-5.74-3.49-7.05-.04-1.01,1.45-4.16,2.37-4.38Z"/>
        <path d="M477.19,408.95c3.5,3.05,5.33,23.7,4.3,28.27-.64,2.84-2.92,5.52-5.92,3.38-3.45-2.45-5.07-22.09-4.48-26.5.39-2.86,2.81-8.01,6.09-5.15Z"/>
        <path d="M182.51,410.24c2.16,6.12,4.46,13.35,9.26,17.96,1.95,1.87,12.14,7.79,5.66,10.57s-14.69-7.3-17.34-12.32c-2.54-4.82-7.1-17.59,2.42-16.2Z"/>
        <path d="M468.02,483.79c1.52-.29,2.99.2,4.08,1.3,2.79,4.7-7.93,24.46-12.4,26.53-1.9.88-4.79-.27-5.27-2.39-.76-3.34,8.95-22.21,11.69-24.44.56-.46,1.17-.86,1.9-1Z"/>
        <path d="M478.47,446.49c7.55.31,1.16,22.95-1.17,26.83-2.65,4.4-7.32,4.4-7.73-1.28-.35-4.88,2.31-25.83,8.9-25.56Z"/>
        <path d="M255.51,310.57c.69-1.1,4.71-.86,6.08-.27,3.86,1.67,10.76,13.53,12,17.69,3.57,12-4.89,8.84-9.99,1.51-2.07-2.98-9.95-15.96-8.09-18.92Z"/>
        <path d="M408.61,407.42c4.95-1.2,18.81,16.8,19.84,21.63,1.12,5.22-2.26,7.68-6.23,4.11-1.95-1.75-13.55-16.89-14.71-19.21-.99-1.97-1.59-5.88,1.1-6.53Z"/>
        <path d="M428.41,349.48c1.08-.33,2.14-.2,3.23.03,3.25.67,18.69,12.62,18.09,15.65l-5.2,5.15c-1.23,0-17.33-12.23-18.06-13.49-1.27-2.2-.69-6.53,1.95-7.34Z"/>
        <path d="M246.68,346.65c5.48-1.91,24.67,7.74,25.56,13.84.3,2.03-.92,3.75-3.02,3.76-3.51.02-21.98-9.69-23.65-12.5-.91-1.54-1-4.36,1.1-5.09Z"/>
        <path d="M427.89,533.19c-.19,5.37-6.37,9.34-10.81,11.42-4.91,2.29-14.23,5.15-18.06.09l.24-2.34c.76-1.23,18.05-8.6,20.48-9.22,2.97-.76,5.17-1.13,8.15.06Z"/>
        <path d="M447.54,514.2c2.14-.29,4.7.85,4.94,3.16.42,4.16-9.22,13.51-12.97,15.03-5.41,2.2-10.47-.75-6.97-6.26,1.63-2.57,12.11-11.53,15-11.93Z"/>
        <path d="M425.89,442.07c9.92-5.06,11.62,14.68,11.23,20.79-.33,5.25-2.66,9.94-6.74,3.87l-4.49-24.65Z"/>
        <path d="M222.02,343.19c2.93-.31,17.41.46,11.04,5.38-3.02,2.33-22.46,6.18-24.72,2.93-3.07-4.42,10.89-8.02,13.68-8.32Z"/>
        <path d="M226.22,430.79c4.28-.95,4.82,3.26,3.38,6.24-.92,1.91-12.9,6.96-15.37,6.88-2.74-.08-10.17-1.91-8.95-5.71.77-2.39,9.38-2.28,11.98-2.91,3.79-.92,6.94-4.05,8.96-4.5Z"/>
        <path d="M179.76,404.49c-1.77-.01-3.16.55-4.1-1.19-2.11-3.92-.94-22.79,2.99-25.72,1.44-1.08,3.48-.91,4.29.76,2.55,5.23-5.49,19.76-3.18,26.15Z"/>
        <path d="M429.11,475.33c7.99-2.45,4.17,9.99,2.47,13.79-1.08,2.41-6.7,11.24-8.48,5.37-.83-2.74,3.25-18.31,6.01-19.16Z"/>
        <path d="M197.24,355.85c1.18-.26,2.5-.43,3.43.53,2.25,3.18-6.46,11.85-8.88,13.84-.96.79-2.99,2.76-4.23,2.16-6.78-3.65,6.16-15.75,9.68-16.53Z"/>
        <path d="M234.8,428.44c-.85.04-3.9.88-3.42-.95.8-2.07,2.27-2.54,4.22-3.2l-.8,4.14Z"/>


  </g>
</svg>